<?xml version="1.0" standalone="no"?>
<!DOCTYPE svg PUBLIC "-//W3C//DTD SVG 20010904//EN"
 "http://www.w3.org/TR/2001/REC-SVG-20010904/DTD/svg10.dtd">
<svg version="1.0" xmlns="http://www.w3.org/2000/svg"
 width="500.000000pt" height="500.000000pt" viewBox="0 0 500.000000 500.000000"
 preserveAspectRatio="xMidYMid meet">

<g transform="translate(0.000000,500.000000) scale(0.100000,-0.100000)"
fill="#000000" stroke="none">
<path d="M1250 2510 l0 -1481 838 4 c823 3 839 3 935 25 360 82 636 289 777
583 60 126 82 222 83 359 1 225 -75 397 -244 554 l-69 64 52 74 c102 142 142
264 142 433 -1 224 -91 425 -268 593 -122 116 -262 192 -447 243 l-84 23 -857
4 -858 3 0 -1481z m1089 648 c19 -6 53 -30 77 -54 173 -172 6 -469 -227 -404
-21 6 -90 55 -170 121 -172 142 -163 132 -150 157 8 16 25 21 90 26 73 7 80 9
91 34 35 84 142 147 225 135 17 -3 45 -10 64 -15z m669 -12 c41 -21 98 -87
112 -131 34 -104 -11 -232 -103 -289 -130 -80 -288 -14 -333 141 -38 130 35
266 162 298 52 13 114 6 162 -19z m-1081 -900 c106 -75 279 -143 425 -166 111
-18 351 -8 450 18 101 27 208 71 283 115 l60 35 3 -85 c3 -101 3 -102 -104
-163 -340 -195 -821 -171 -1123 55 -58 44 -62 51 -57 78 3 16 6 56 6 88 0 33
2 59 5 59 3 0 26 -15 52 -34z"/>
</g>
</svg>
